<svg width="24" height="24" viewBox="0 0 24 24" fill="none" xmlns="http://www.w3.org/2000/svg">
<mask id="mask0_1_1157" style="mask-type:luminance" maskUnits="userSpaceOnUse" x="0" y="0" width="24" height="24">
<rect width="24" height="24" fill="white"/>
</mask>
<g mask="url(#mask0_1_1157)">
<path fill-rule="evenodd" clip-rule="evenodd" d="M4 4H20C21.1046 4 22 4.89543 22 6V18C22 19.1046 21.1046 20 20 20H4C2.89543 20 2 19.1046 2 18V6C2 4.9 2.9 4 4 4ZM20 7.38V6H4V7.38L12 11.38L20 7.38ZM20 9.62L12.45 13.39C12.167 13.5326 11.833 13.5326 11.55 13.39L4 9.62V18H20V9.62Z" fill="#9E9E9E"/>
</g>
</svg>
