<svg width="18" height="18" viewBox="0 0 18 18" fill="none" xmlns="http://www.w3.org/2000/svg">
<mask id="mask0_1_1122" style="mask-type:luminance" maskUnits="userSpaceOnUse" x="0" y="0" width="18" height="18">
<rect width="18" height="18" fill="white"/>
</mask>
<g mask="url(#mask0_1_1122)">
<path fill-rule="evenodd" clip-rule="evenodd" d="M11.1887 0C12.3947 0 12.9977 0.8208 12.9977 1.7613C12.9977 2.9358 11.9501 4.0221 10.5866 4.0221C9.44453 4.0221 8.77853 3.3471 8.81003 2.2311C8.81003 1.2924 9.60293 0 11.1887 0ZM7.47809 17.9999C6.52589 17.9999 5.82839 17.4131 6.49439 14.8283L7.58699 10.2455C7.77689 9.51295 7.80839 9.21865 7.58699 9.21865C7.30169 9.21865 6.06689 9.72445 5.33519 10.2239L4.85999 9.43195C7.17479 7.46455 9.83789 6.31165 10.9809 6.31165C11.9322 6.31165 12.0906 7.45735 11.6154 9.21865L10.3635 14.0354C10.1421 14.8859 10.2366 15.1793 10.4589 15.1793C10.7442 15.1793 11.6802 14.8265 12.6 14.093L13.14 14.8256C10.8882 17.1179 8.42849 17.9999 7.47809 17.9999Z" fill="#9E9E9E"/>
</g>
</svg>
