<svg width="24" height="24" viewBox="0 0 24 24" fill="none" xmlns="http://www.w3.org/2000/svg">
<mask id="mask0_1_1167" style="mask-type:luminance" maskUnits="userSpaceOnUse" x="0" y="0" width="24" height="24">
<rect width="24" height="24" fill="white"/>
</mask>
<g mask="url(#mask0_1_1167)">
<path fill-rule="evenodd" clip-rule="evenodd" d="M15.4516 11.7097H7.32255C6.68118 11.7097 6.16125 12.2296 6.16125 12.871V18.6775C6.16125 19.3188 6.68118 19.8387 7.32255 19.8387H15.4516C16.0929 19.8387 16.6129 19.3188 16.6129 18.6775V12.871C16.6129 12.2296 16.0929 11.7097 15.4516 11.7097ZM7.32258 10.5483C6.03985 10.5483 5 11.5882 5 12.8709V18.6774C5 19.9601 6.03986 21 7.32258 21H15.4516C16.7343 21 17.7742 19.9601 17.7742 18.6774V12.8709C17.7742 11.5882 16.7343 10.5483 15.4516 10.5483H7.32258ZM7.32263 7.06452C7.32263 5.61241 8.09732 4.2706 9.35489 3.54454C10.6125 2.81849 12.1618 2.81849 13.4194 3.54454C14.677 4.2706 15.4517 5.6124 15.4517 7.06451V10.5484H14.2904V7.06452C14.2904 5.46111 12.9906 4.16129 11.3872 4.16129C9.78375 4.16129 8.48393 5.4611 8.48392 7.0645V10.5484H7.32263V7.06452Z" fill="#9E9E9E"/>
</g>
</svg>
